<svg xmlns="http://www.w3.org/2000/svg" viewBox="0 0 64 64" width="64" height="64">
  <defs>
    <linearGradient id="g" x1="0" y1="0" x2="1" y2="1">
      <stop offset="0" stop-color="#8f52cc"/>
      <stop offset="1" stop-color="#3882ff"/>
    </linearGradient>
  </defs>
  <rect width="64" height="64" rx="14" fill="#221d22"/>
  <rect width="64" height="64" rx="14" fill="url(#g)" opacity="0.16"/>
  <path d="M20 38c0-8 6-14 14-14 4 0 7 1 9 4l5-3c1 4-1 8-4 10 2 6-2 13-10 13-7 0-12-5-12-12 0-1 0-2 .2-3l-2 .5c-3 .8-5-1-5-3l0-1z" fill="url(#g)"/>
  <circle cx="38" cy="32" r="2.2" fill="#221d22"/>
</svg>
